<mxfile host="app.diagrams.net" modified="2022-01-05T08:11:36.111Z" agent="5.0 (Windows NT 10.0; Win64; x64) AppleWebKit/537.36 (KHTML, like Gecko) Chrome/96.0.4664.110 Safari/537.36" etag="sblI3PS1YDs6dtFsZB9m" version="16.1.0" type="github">
  <diagram id="P6MvJYWOktU1DO3npbHA" name="第 1 页">
    <mxGraphModel dx="1038" dy="547" grid="1" gridSize="10" guides="1" tooltips="1" connect="1" arrows="1" fold="1" page="1" pageScale="1" pageWidth="827" pageHeight="1169" math="0" shadow="0">
      <root>
        <mxCell id="0" />
        <mxCell id="1" parent="0" />
        <mxCell id="JE-GxgBHlpS-5BZEvoe5-5" value="EEG标注组件 事件总线调度中心" style="rounded=0;whiteSpace=wrap;html=1;" vertex="1" parent="1">
          <mxGeometry x="400" y="520" width="130" height="460" as="geometry" />
        </mxCell>
        <mxCell id="JE-GxgBHlpS-5BZEvoe5-6" value="一级子组件" style="rounded=0;whiteSpace=wrap;html=1;" vertex="1" parent="1">
          <mxGeometry x="180" y="530" width="120" height="50" as="geometry" />
        </mxCell>
        <mxCell id="JE-GxgBHlpS-5BZEvoe5-7" value="一级子组件" style="rounded=0;whiteSpace=wrap;html=1;" vertex="1" parent="1">
          <mxGeometry x="180" y="740" width="120" height="50" as="geometry" />
        </mxCell>
        <mxCell id="JE-GxgBHlpS-5BZEvoe5-8" value="二级子组件" style="rounded=0;whiteSpace=wrap;html=1;" vertex="1" parent="1">
          <mxGeometry x="20" y="600" width="120" height="50" as="geometry" />
        </mxCell>
        <mxCell id="JE-GxgBHlpS-5BZEvoe5-11" value="二级子组件" style="rounded=0;whiteSpace=wrap;html=1;" vertex="1" parent="1">
          <mxGeometry x="20" y="690" width="120" height="50" as="geometry" />
        </mxCell>
        <mxCell id="JE-GxgBHlpS-5BZEvoe5-12" value="EEG组件" style="rounded=0;whiteSpace=wrap;html=1;" vertex="1" parent="1">
          <mxGeometry x="210" y="40" width="120" height="60" as="geometry" />
        </mxCell>
        <mxCell id="JE-GxgBHlpS-5BZEvoe5-13" value="一级组件" style="rounded=0;whiteSpace=wrap;html=1;" vertex="1" parent="1">
          <mxGeometry x="210" y="120" width="120" height="60" as="geometry" />
        </mxCell>
        <mxCell id="JE-GxgBHlpS-5BZEvoe5-14" value="二级组件" style="rounded=0;whiteSpace=wrap;html=1;" vertex="1" parent="1">
          <mxGeometry x="210" y="200" width="120" height="60" as="geometry" />
        </mxCell>
        <mxCell id="JE-GxgBHlpS-5BZEvoe5-15" value="一级组件" style="rounded=0;whiteSpace=wrap;html=1;" vertex="1" parent="1">
          <mxGeometry x="530" y="40" width="120" height="60" as="geometry" />
        </mxCell>
        <mxCell id="JE-GxgBHlpS-5BZEvoe5-16" value="二级组件" style="rounded=0;whiteSpace=wrap;html=1;" vertex="1" parent="1">
          <mxGeometry x="530" y="120" width="120" height="60" as="geometry" />
        </mxCell>
        <mxCell id="JE-GxgBHlpS-5BZEvoe5-17" value="三级组件" style="rounded=0;whiteSpace=wrap;html=1;" vertex="1" parent="1">
          <mxGeometry x="530" y="200" width="120" height="60" as="geometry" />
        </mxCell>
        <mxCell id="JE-GxgBHlpS-5BZEvoe5-29" value="" style="endArrow=classic;startArrow=classic;html=1;rounded=0;entryX=0;entryY=0.5;entryDx=0;entryDy=0;" edge="1" parent="1" target="JE-GxgBHlpS-5BZEvoe5-17">
          <mxGeometry width="50" height="50" relative="1" as="geometry">
            <mxPoint x="330" y="230" as="sourcePoint" />
            <mxPoint x="400" y="250" as="targetPoint" />
          </mxGeometry>
        </mxCell>
        <mxCell id="JE-GxgBHlpS-5BZEvoe5-30" value="" style="endArrow=classic;startArrow=classic;html=1;rounded=0;exitX=1;exitY=0.5;exitDx=0;exitDy=0;" edge="1" parent="1" source="JE-GxgBHlpS-5BZEvoe5-13">
          <mxGeometry width="50" height="50" relative="1" as="geometry">
            <mxPoint x="420" y="320" as="sourcePoint" />
            <mxPoint x="530" y="230" as="targetPoint" />
          </mxGeometry>
        </mxCell>
        <mxCell id="JE-GxgBHlpS-5BZEvoe5-31" value="" style="endArrow=classic;startArrow=classic;html=1;rounded=0;" edge="1" parent="1">
          <mxGeometry width="50" height="50" relative="1" as="geometry">
            <mxPoint x="330" y="230" as="sourcePoint" />
            <mxPoint x="530" y="150" as="targetPoint" />
          </mxGeometry>
        </mxCell>
        <mxCell id="JE-GxgBHlpS-5BZEvoe5-32" value="" style="endArrow=classic;startArrow=classic;html=1;rounded=0;exitX=1;exitY=0.5;exitDx=0;exitDy=0;entryX=0;entryY=0.5;entryDx=0;entryDy=0;" edge="1" parent="1" source="JE-GxgBHlpS-5BZEvoe5-13" target="JE-GxgBHlpS-5BZEvoe5-16">
          <mxGeometry width="50" height="50" relative="1" as="geometry">
            <mxPoint x="420" y="160" as="sourcePoint" />
            <mxPoint x="470" y="110" as="targetPoint" />
          </mxGeometry>
        </mxCell>
        <mxCell id="JE-GxgBHlpS-5BZEvoe5-33" value="" style="endArrow=classic;startArrow=classic;html=1;rounded=0;exitX=1;exitY=0.5;exitDx=0;exitDy=0;entryX=0;entryY=0.5;entryDx=0;entryDy=0;" edge="1" parent="1" source="JE-GxgBHlpS-5BZEvoe5-12" target="JE-GxgBHlpS-5BZEvoe5-15">
          <mxGeometry width="50" height="50" relative="1" as="geometry">
            <mxPoint x="370" y="80" as="sourcePoint" />
            <mxPoint x="420" y="30" as="targetPoint" />
          </mxGeometry>
        </mxCell>
        <mxCell id="JE-GxgBHlpS-5BZEvoe5-34" value="" style="endArrow=classic;startArrow=classic;html=1;rounded=0;exitX=1;exitY=0.5;exitDx=0;exitDy=0;" edge="1" parent="1" source="JE-GxgBHlpS-5BZEvoe5-12">
          <mxGeometry width="50" height="50" relative="1" as="geometry">
            <mxPoint x="420" y="140" as="sourcePoint" />
            <mxPoint x="530" y="150" as="targetPoint" />
          </mxGeometry>
        </mxCell>
        <mxCell id="JE-GxgBHlpS-5BZEvoe5-35" value="" style="endArrow=classic;startArrow=classic;html=1;rounded=0;exitX=1;exitY=0.5;exitDx=0;exitDy=0;entryX=0;entryY=0.5;entryDx=0;entryDy=0;" edge="1" parent="1" source="JE-GxgBHlpS-5BZEvoe5-13" target="JE-GxgBHlpS-5BZEvoe5-15">
          <mxGeometry width="50" height="50" relative="1" as="geometry">
            <mxPoint x="370" y="140" as="sourcePoint" />
            <mxPoint x="420" y="90" as="targetPoint" />
          </mxGeometry>
        </mxCell>
        <mxCell id="JE-GxgBHlpS-5BZEvoe5-36" value="" style="endArrow=classic;startArrow=classic;html=1;rounded=0;exitX=1;exitY=0.5;exitDx=0;exitDy=0;entryX=0;entryY=0.5;entryDx=0;entryDy=0;" edge="1" parent="1" source="JE-GxgBHlpS-5BZEvoe5-12" target="JE-GxgBHlpS-5BZEvoe5-17">
          <mxGeometry width="50" height="50" relative="1" as="geometry">
            <mxPoint x="380" y="70" as="sourcePoint" />
            <mxPoint x="430" y="20" as="targetPoint" />
          </mxGeometry>
        </mxCell>
        <mxCell id="JE-GxgBHlpS-5BZEvoe5-37" value="" style="endArrow=classic;startArrow=classic;html=1;rounded=0;entryX=0;entryY=0.5;entryDx=0;entryDy=0;" edge="1" parent="1" target="JE-GxgBHlpS-5BZEvoe5-15">
          <mxGeometry width="50" height="50" relative="1" as="geometry">
            <mxPoint x="330" y="230" as="sourcePoint" />
            <mxPoint x="470" y="310" as="targetPoint" />
          </mxGeometry>
        </mxCell>
        <mxCell id="JE-GxgBHlpS-5BZEvoe5-39" value="组件之间无序失控的通信" style="text;html=1;strokeColor=none;fillColor=none;align=center;verticalAlign=middle;whiteSpace=wrap;rounded=0;" vertex="1" parent="1">
          <mxGeometry x="345" y="290" width="170" height="20" as="geometry" />
        </mxCell>
        <mxCell id="JE-GxgBHlpS-5BZEvoe5-40" value="其他外层组件" style="rounded=0;whiteSpace=wrap;html=1;" vertex="1" parent="1">
          <mxGeometry y="120" width="100" height="60" as="geometry" />
        </mxCell>
        <mxCell id="JE-GxgBHlpS-5BZEvoe5-41" value="" style="endArrow=classic;html=1;rounded=0;exitX=1;exitY=0.5;exitDx=0;exitDy=0;entryX=0;entryY=0.5;entryDx=0;entryDy=0;" edge="1" parent="1" source="JE-GxgBHlpS-5BZEvoe5-40" target="JE-GxgBHlpS-5BZEvoe5-12">
          <mxGeometry width="50" height="50" relative="1" as="geometry">
            <mxPoint x="140" y="180" as="sourcePoint" />
            <mxPoint x="190" y="130" as="targetPoint" />
          </mxGeometry>
        </mxCell>
        <mxCell id="JE-GxgBHlpS-5BZEvoe5-42" value="" style="endArrow=classic;html=1;rounded=0;entryX=0;entryY=0.5;entryDx=0;entryDy=0;exitX=1;exitY=0.5;exitDx=0;exitDy=0;" edge="1" parent="1" source="JE-GxgBHlpS-5BZEvoe5-40" target="JE-GxgBHlpS-5BZEvoe5-13">
          <mxGeometry width="50" height="50" relative="1" as="geometry">
            <mxPoint x="120" y="150" as="sourcePoint" />
            <mxPoint x="190" y="170" as="targetPoint" />
          </mxGeometry>
        </mxCell>
        <mxCell id="JE-GxgBHlpS-5BZEvoe5-43" value="" style="endArrow=classic;html=1;rounded=0;exitX=1;exitY=0.5;exitDx=0;exitDy=0;entryX=0;entryY=0.5;entryDx=0;entryDy=0;" edge="1" parent="1" source="JE-GxgBHlpS-5BZEvoe5-40" target="JE-GxgBHlpS-5BZEvoe5-14">
          <mxGeometry width="50" height="50" relative="1" as="geometry">
            <mxPoint x="130" y="250" as="sourcePoint" />
            <mxPoint x="180" y="200" as="targetPoint" />
          </mxGeometry>
        </mxCell>
        <mxCell id="JE-GxgBHlpS-5BZEvoe5-44" value="其他外层组件" style="rounded=0;whiteSpace=wrap;html=1;" vertex="1" parent="1">
          <mxGeometry x="730" y="120" width="97" height="60" as="geometry" />
        </mxCell>
        <mxCell id="JE-GxgBHlpS-5BZEvoe5-45" value="" style="endArrow=classic;html=1;rounded=0;entryX=1;entryY=0.5;entryDx=0;entryDy=0;exitX=0;exitY=0.5;exitDx=0;exitDy=0;" edge="1" parent="1" source="JE-GxgBHlpS-5BZEvoe5-44" target="JE-GxgBHlpS-5BZEvoe5-15">
          <mxGeometry width="50" height="50" relative="1" as="geometry">
            <mxPoint x="720" y="100" as="sourcePoint" />
            <mxPoint x="770" y="50" as="targetPoint" />
          </mxGeometry>
        </mxCell>
        <mxCell id="JE-GxgBHlpS-5BZEvoe5-46" value="" style="endArrow=classic;html=1;rounded=0;entryX=1;entryY=0.5;entryDx=0;entryDy=0;exitX=0;exitY=0.5;exitDx=0;exitDy=0;" edge="1" parent="1" source="JE-GxgBHlpS-5BZEvoe5-44" target="JE-GxgBHlpS-5BZEvoe5-16">
          <mxGeometry width="50" height="50" relative="1" as="geometry">
            <mxPoint x="700" y="250" as="sourcePoint" />
            <mxPoint x="750" y="200" as="targetPoint" />
          </mxGeometry>
        </mxCell>
        <mxCell id="JE-GxgBHlpS-5BZEvoe5-47" value="" style="endArrow=classic;html=1;rounded=0;entryX=1;entryY=0.5;entryDx=0;entryDy=0;exitX=0;exitY=0.5;exitDx=0;exitDy=0;" edge="1" parent="1" source="JE-GxgBHlpS-5BZEvoe5-44" target="JE-GxgBHlpS-5BZEvoe5-17">
          <mxGeometry width="50" height="50" relative="1" as="geometry">
            <mxPoint x="710" y="260" as="sourcePoint" />
            <mxPoint x="760" y="210" as="targetPoint" />
          </mxGeometry>
        </mxCell>
      </root>
    </mxGraphModel>
  </diagram>
</mxfile>
